<svg width="65" height="64" viewBox="0 0 65 64" fill="none" xmlns="http://www.w3.org/2000/svg">
<g clip-path="url(#clip0_404_901)">
<mask id="mask0_404_901" style="mask-type:alpha" maskUnits="userSpaceOnUse" x="0" y="0" width="65" height="64">
<path d="M32.8789 64C50.552 64 64.8789 49.6731 64.8789 32C64.8789 14.3269 50.552 0 32.8789 0C15.2058 0 0.878906 14.3269 0.878906 32C0.878906 49.6731 15.2058 64 32.8789 64Z" fill="black"/>
</mask>
<g mask="url(#mask0_404_901)">
<path d="M32.8791 62.9333C49.9631 62.9333 63.8125 49.084 63.8125 32C63.8125 14.916 49.9631 1.06665 32.8791 1.06665C15.7951 1.06665 1.9458 14.916 1.9458 32C1.9458 49.084 15.7951 62.9333 32.8791 62.9333Z" fill="black" stroke="white" stroke-width="6"/>
<path d="M54.0375 56.0071L25.4629 19.2H20.0791V44.7893H24.3862V24.6697L50.6565 58.6116C51.8419 57.8183 52.9712 56.9476 54.0375 56.0071Z" fill="url(#paint0_linear_404_901)"/>
<path d="M46.0347 19.2H41.7681V44.8H46.0347V19.2Z" fill="url(#paint1_linear_404_901)"/>
</g>
</g>
<defs>
<linearGradient id="paint0_linear_404_901" x1="39.6347" y1="41.4222" x2="52.2569" y2="57.0667" gradientUnits="userSpaceOnUse">
<stop stop-color="white"/>
<stop offset="1" stop-color="white" stop-opacity="0"/>
</linearGradient>
<linearGradient id="paint1_linear_404_901" x1="43.9014" y1="19.2" x2="43.8299" y2="38" gradientUnits="userSpaceOnUse">
<stop stop-color="white"/>
<stop offset="1" stop-color="white" stop-opacity="0"/>
</linearGradient>
<clipPath id="clip0_404_901">
<rect width="64" height="64" fill="white" transform="translate(0.878906)"/>
</clipPath>
</defs>
</svg>
